<?xml version="1.0" standalone="no"?>
<!DOCTYPE svg PUBLIC "-//W3C//DTD SVG 20010904//EN"
 "http://www.w3.org/TR/2001/REC-SVG-20010904/DTD/svg10.dtd">
<svg version="1.0" xmlns="http://www.w3.org/2000/svg"
 width="171.000000pt" height="118.000000pt" viewBox="0 0 171.000000 118.000000"
 preserveAspectRatio="xMidYMid meet">
<metadata>
Created by potrace 1.16, written by Peter Selinger 2001-2019
</metadata>
<g transform="translate(0.000000,118.000000) scale(0.100000,-0.100000)"
fill="#000000" stroke="none">
<path d="M114 1082 c4 -7 12 -12 18 -12 21 0 80 -53 109 -98 l29 -46 0 -259 0
-259 -31 -29 -31 -29 72 0 73 0 -26 24 c-35 32 -38 60 -35 290 l3 199 89 -234
c154 -407 181 -449 294 -474 41 -9 41 6 -1 25 -26 12 -42 35 -85 122 -29 59
-54 115 -54 125 -1 10 35 119 78 243 l79 225 3 -230 c1 -126 0 -240 -3 -253
-3 -12 -20 -31 -38 -42 l-32 -20 99 0 98 0 -31 29 -31 29 0 249 c0 260 1 267
45 291 16 9 8 11 -45 12 l-65 0 -85 -240 c-46 -132 -87 -240 -90 -240 -3 0
-46 105 -95 232 -93 242 -121 292 -190 340 -42 29 -134 51 -121 30z"/>
<path d="M930 959 c-47 -3 -79 -6 -72 -7 6 -1 21 -11 32 -22 19 -19 20 -33 20
-266 0 -148 -4 -253 -10 -264 -6 -11 -23 -26 -38 -34 -25 -14 -17 -15 103 -15
147 -1 190 12 238 68 58 69 41 168 -39 224 l-43 30 34 24 c19 13 42 37 50 53
9 17 21 30 28 30 8 0 9 3 1 8 -6 4 -14 24 -17 46 -3 21 -13 48 -21 61 -32 49
-132 73 -266 64z m134 -29 c28 -10 66 -45 66 -60 0 -5 -6 -7 -14 -4 -15 6 -30
-22 -16 -31 5 -3 6 -13 3 -22 -4 -9 1 -19 10 -25 40 -22 0 -80 -67 -99 -48
-13 -46 -26 7 -34 51 -9 103 -59 113 -110 18 -98 -51 -175 -156 -175 l-40 0 0
285 0 285 34 0 c19 0 46 -4 60 -10z"/>
<path d="M15 950 c45 -17 45 -24 43 -301 l-3 -264 -30 -15 -30 -15 53 -3 c29
-2 74 -2 100 0 45 3 46 4 21 15 -15 6 -29 19 -33 28 -3 9 -6 131 -6 271 l0
254 33 20 32 20 -100 -1 c-63 0 -92 -3 -80 -9z"/>
</g>
</svg>
